<mxfile host="app.diagrams.net" modified="2020-09-28T01:45:05.715Z" agent="5.0 (Windows)" etag="PI86KDB4eVcZSS5j9mC5" version="13.7.5" type="github">
  <diagram id="R2lEEEUBdFMjLlhIrx00" name="Page-1">
    <mxGraphModel dx="1718" dy="959" grid="1" gridSize="10" guides="1" tooltips="1" connect="1" arrows="1" fold="1" page="1" pageScale="1" pageWidth="1100" pageHeight="850" math="0" shadow="0" extFonts="Permanent Marker^https://fonts.googleapis.com/css?family=Permanent+Marker">
      <root>
        <mxCell id="0" />
        <mxCell id="1" parent="0" />
        <mxCell id="Bd_Znv9zzZqGdn2Q8TQX-7" style="edgeStyle=orthogonalEdgeStyle;orthogonalLoop=1;jettySize=auto;html=1;exitX=1;exitY=0.5;exitDx=0;exitDy=0;entryX=1;entryY=0.5;entryDx=0;entryDy=0;entryPerimeter=0;horizontal=1;labelBorderColor=none;" parent="1" source="Bd_Znv9zzZqGdn2Q8TQX-1" target="Bd_Znv9zzZqGdn2Q8TQX-1" edge="1">
          <mxGeometry relative="1" as="geometry" />
        </mxCell>
        <mxCell id="Bd_Znv9zzZqGdn2Q8TQX-1" value="Factory" style="whiteSpace=wrap;html=1;align=center;horizontal=1;labelBorderColor=none;" parent="1" vertex="1">
          <mxGeometry x="70" y="200" width="100" height="40" as="geometry" />
        </mxCell>
        <mxCell id="Bd_Znv9zzZqGdn2Q8TQX-8" style="edgeStyle=orthogonalEdgeStyle;orthogonalLoop=1;jettySize=auto;html=1;exitX=0;exitY=0.5;exitDx=0;exitDy=0;horizontal=1;labelBorderColor=none;" parent="1" source="Bd_Znv9zzZqGdn2Q8TQX-2" edge="1">
          <mxGeometry relative="1" as="geometry">
            <mxPoint x="370" y="220" as="targetPoint" />
          </mxGeometry>
        </mxCell>
        <mxCell id="Bd_Znv9zzZqGdn2Q8TQX-16" style="edgeStyle=orthogonalEdgeStyle;orthogonalLoop=1;jettySize=auto;html=1;exitX=0.5;exitY=0;exitDx=0;exitDy=0;entryX=0.5;entryY=1;entryDx=0;entryDy=0;horizontal=1;labelBorderColor=none;" parent="1" source="Bd_Znv9zzZqGdn2Q8TQX-2" target="Bd_Znv9zzZqGdn2Q8TQX-14" edge="1">
          <mxGeometry relative="1" as="geometry" />
        </mxCell>
        <mxCell id="Bd_Znv9zzZqGdn2Q8TQX-28" style="edgeStyle=orthogonalEdgeStyle;orthogonalLoop=1;jettySize=auto;html=1;exitX=0.5;exitY=1;exitDx=0;exitDy=0;entryX=0.5;entryY=0;entryDx=0;entryDy=0;horizontal=1;labelBorderColor=none;" parent="1" source="Bd_Znv9zzZqGdn2Q8TQX-2" target="Bd_Znv9zzZqGdn2Q8TQX-27" edge="1">
          <mxGeometry relative="1" as="geometry" />
        </mxCell>
        <mxCell id="Bd_Znv9zzZqGdn2Q8TQX-2" value="Department" style="whiteSpace=wrap;html=1;align=center;horizontal=1;labelBorderColor=none;" parent="1" vertex="1">
          <mxGeometry x="370" y="200" width="100" height="40" as="geometry" />
        </mxCell>
        <mxCell id="Bd_Znv9zzZqGdn2Q8TQX-3" value="Has" style="shape=rhombus;perimeter=rhombusPerimeter;whiteSpace=wrap;html=1;align=center;horizontal=1;labelBorderColor=none;" parent="1" vertex="1">
          <mxGeometry x="210" y="190" width="120" height="60" as="geometry" />
        </mxCell>
        <mxCell id="Bd_Znv9zzZqGdn2Q8TQX-13" value="n" style="text;strokeColor=none;fillColor=none;spacingLeft=4;spacingRight=4;overflow=hidden;rotatable=0;points=[[0,0.5],[1,0.5]];portConstraint=eastwest;fontSize=12;horizontal=1;labelBorderColor=none;" parent="1" vertex="1">
          <mxGeometry x="350" y="190" width="40" height="30" as="geometry" />
        </mxCell>
        <mxCell id="Bd_Znv9zzZqGdn2Q8TQX-14" value="Employs" style="shape=rhombus;perimeter=rhombusPerimeter;whiteSpace=wrap;html=1;align=center;horizontal=1;labelBorderColor=none;" parent="1" vertex="1">
          <mxGeometry x="360" y="110" width="120" height="60" as="geometry" />
        </mxCell>
        <mxCell id="Bd_Znv9zzZqGdn2Q8TQX-17" style="edgeStyle=orthogonalEdgeStyle;orthogonalLoop=1;jettySize=auto;html=1;exitX=0.5;exitY=1;exitDx=0;exitDy=0;entryX=0.5;entryY=0;entryDx=0;entryDy=0;horizontal=1;labelBorderColor=none;" parent="1" source="Bd_Znv9zzZqGdn2Q8TQX-15" target="Bd_Znv9zzZqGdn2Q8TQX-14" edge="1">
          <mxGeometry relative="1" as="geometry" />
        </mxCell>
        <mxCell id="Bd_Znv9zzZqGdn2Q8TQX-15" value="Employee" style="whiteSpace=wrap;html=1;align=center;horizontal=1;labelBorderColor=none;" parent="1" vertex="1">
          <mxGeometry x="370" y="30" width="100" height="40" as="geometry" />
        </mxCell>
        <mxCell id="Bd_Znv9zzZqGdn2Q8TQX-18" value="1" style="text;strokeColor=none;fillColor=none;spacingLeft=4;spacingRight=4;overflow=hidden;rotatable=0;points=[[0,0.5],[1,0.5]];portConstraint=eastwest;fontSize=12;horizontal=1;labelBorderColor=none;" parent="1" vertex="1">
          <mxGeometry x="390" y="170" width="40" height="30" as="geometry" />
        </mxCell>
        <mxCell id="Bd_Znv9zzZqGdn2Q8TQX-19" value="n" style="text;strokeColor=none;fillColor=none;spacingLeft=4;spacingRight=4;overflow=hidden;rotatable=0;points=[[0,0.5],[1,0.5]];portConstraint=eastwest;fontSize=12;horizontal=1;labelBorderColor=none;" parent="1" vertex="1">
          <mxGeometry x="390" y="80" width="40" height="30" as="geometry" />
        </mxCell>
        <mxCell id="Bd_Znv9zzZqGdn2Q8TQX-21" style="edgeStyle=orthogonalEdgeStyle;orthogonalLoop=1;jettySize=auto;html=1;entryX=0.5;entryY=1;entryDx=0;entryDy=0;horizontal=1;labelBorderColor=none;" parent="1" target="Bd_Znv9zzZqGdn2Q8TQX-20" edge="1">
          <mxGeometry relative="1" as="geometry">
            <mxPoint x="470" y="220" as="sourcePoint" />
            <Array as="points">
              <mxPoint x="570" y="220" />
            </Array>
          </mxGeometry>
        </mxCell>
        <mxCell id="Bd_Znv9zzZqGdn2Q8TQX-22" style="edgeStyle=orthogonalEdgeStyle;orthogonalLoop=1;jettySize=auto;html=1;horizontal=1;labelBorderColor=none;" parent="1" target="Bd_Znv9zzZqGdn2Q8TQX-20" edge="1">
          <mxGeometry relative="1" as="geometry">
            <mxPoint x="470" y="50" as="sourcePoint" />
            <Array as="points">
              <mxPoint x="570" y="50" />
            </Array>
          </mxGeometry>
        </mxCell>
        <mxCell id="Bd_Znv9zzZqGdn2Q8TQX-20" value="Manages" style="shape=rhombus;perimeter=rhombusPerimeter;whiteSpace=wrap;html=1;align=center;horizontal=1;labelBorderColor=none;" parent="1" vertex="1">
          <mxGeometry x="510" y="110" width="120" height="60" as="geometry" />
        </mxCell>
        <mxCell id="Bd_Znv9zzZqGdn2Q8TQX-23" value="1" style="text;strokeColor=none;fillColor=none;spacingLeft=4;spacingRight=4;overflow=hidden;rotatable=0;points=[[0,0.5],[1,0.5]];portConstraint=eastwest;fontSize=12;horizontal=1;labelBorderColor=none;" parent="1" vertex="1">
          <mxGeometry x="520" y="60" width="40" height="30" as="geometry" />
        </mxCell>
        <mxCell id="Bd_Znv9zzZqGdn2Q8TQX-24" value="1" style="text;strokeColor=none;fillColor=none;spacingLeft=4;spacingRight=4;overflow=hidden;rotatable=0;points=[[0,0.5],[1,0.5]];portConstraint=eastwest;fontSize=12;horizontal=1;labelBorderColor=none;" parent="1" vertex="1">
          <mxGeometry x="520" y="180" width="40" height="30" as="geometry" />
        </mxCell>
        <mxCell id="Bd_Znv9zzZqGdn2Q8TQX-29" style="edgeStyle=orthogonalEdgeStyle;orthogonalLoop=1;jettySize=auto;html=1;exitX=0.5;exitY=0;exitDx=0;exitDy=0;entryX=0.5;entryY=1;entryDx=0;entryDy=0;horizontal=1;labelBorderColor=none;" parent="1" source="Bd_Znv9zzZqGdn2Q8TQX-26" target="Bd_Znv9zzZqGdn2Q8TQX-27" edge="1">
          <mxGeometry relative="1" as="geometry" />
        </mxCell>
        <mxCell id="e_yjh1AmBEDmSFLJNo_H-1" style="edgeStyle=orthogonalEdgeStyle;rounded=0;orthogonalLoop=1;jettySize=auto;html=1;exitX=0;exitY=0.5;exitDx=0;exitDy=0;entryX=1;entryY=0.5;entryDx=0;entryDy=0;" edge="1" parent="1" source="e_yjh1AmBEDmSFLJNo_H-7" target="Bd_Znv9zzZqGdn2Q8TQX-34">
          <mxGeometry relative="1" as="geometry" />
        </mxCell>
        <mxCell id="Bd_Znv9zzZqGdn2Q8TQX-26" value="Machine" style="whiteSpace=wrap;html=1;align=center;horizontal=1;labelBorderColor=none;" parent="1" vertex="1">
          <mxGeometry x="370" y="360" width="100" height="40" as="geometry" />
        </mxCell>
        <mxCell id="Bd_Znv9zzZqGdn2Q8TQX-27" value="Assigned" style="shape=rhombus;perimeter=rhombusPerimeter;whiteSpace=wrap;html=1;align=center;horizontal=1;labelBorderColor=none;" parent="1" vertex="1">
          <mxGeometry x="360" y="270" width="120" height="60" as="geometry" />
        </mxCell>
        <mxCell id="Bd_Znv9zzZqGdn2Q8TQX-30" value="1" style="text;html=1;align=center;verticalAlign=middle;resizable=0;points=[];autosize=1;horizontal=1;labelBorderColor=none;" parent="1" vertex="1">
          <mxGeometry x="390" y="250" width="20" height="20" as="geometry" />
        </mxCell>
        <mxCell id="Bd_Znv9zzZqGdn2Q8TQX-31" value="n" style="text;html=1;align=center;verticalAlign=middle;resizable=0;points=[];autosize=1;horizontal=1;labelBorderColor=none;" parent="1" vertex="1">
          <mxGeometry x="390" y="330" width="20" height="20" as="geometry" />
        </mxCell>
        <mxCell id="Bd_Znv9zzZqGdn2Q8TQX-53" style="edgeStyle=entityRelationEdgeStyle;rounded=0;orthogonalLoop=1;jettySize=auto;html=1;exitX=1;exitY=0.5;exitDx=0;exitDy=0;entryX=0;entryY=0.5;entryDx=0;entryDy=0;" parent="1" source="Bd_Znv9zzZqGdn2Q8TQX-32" target="Bd_Znv9zzZqGdn2Q8TQX-34" edge="1">
          <mxGeometry relative="1" as="geometry" />
        </mxCell>
        <mxCell id="e_yjh1AmBEDmSFLJNo_H-3" style="edgeStyle=orthogonalEdgeStyle;rounded=0;orthogonalLoop=1;jettySize=auto;html=1;" edge="1" parent="1" source="Bd_Znv9zzZqGdn2Q8TQX-32" target="Bd_Znv9zzZqGdn2Q8TQX-35">
          <mxGeometry relative="1" as="geometry" />
        </mxCell>
        <mxCell id="Bd_Znv9zzZqGdn2Q8TQX-32" value="Maintenance" style="whiteSpace=wrap;html=1;align=center;horizontal=1;labelBorderColor=none;" parent="1" vertex="1">
          <mxGeometry x="70" y="360" width="100" height="40" as="geometry" />
        </mxCell>
        <mxCell id="Bd_Znv9zzZqGdn2Q8TQX-33" value="Contractor" style="whiteSpace=wrap;html=1;align=center;horizontal=1;labelBorderColor=none;" parent="1" vertex="1">
          <mxGeometry x="70" y="510" width="100" height="40" as="geometry" />
        </mxCell>
        <mxCell id="Bd_Znv9zzZqGdn2Q8TQX-34" value="Relationship" style="shape=rhombus;perimeter=rhombusPerimeter;whiteSpace=wrap;html=1;align=center;horizontal=1;labelBorderColor=none;" parent="1" vertex="1">
          <mxGeometry x="210" y="350" width="120" height="60" as="geometry" />
        </mxCell>
        <mxCell id="Bd_Znv9zzZqGdn2Q8TQX-35" value="Performs" style="shape=rhombus;perimeter=rhombusPerimeter;whiteSpace=wrap;html=1;align=center;horizontal=1;labelBorderColor=none;" parent="1" vertex="1">
          <mxGeometry x="60" y="420" width="120" height="60" as="geometry" />
        </mxCell>
        <mxCell id="Bd_Znv9zzZqGdn2Q8TQX-40" value="" style="edgeStyle=entityRelationEdgeStyle;fontSize=12;html=1;endArrow=ERoneToMany;entryX=0;entryY=0.5;entryDx=0;entryDy=0;exitX=1;exitY=0.5;exitDx=0;exitDy=0;horizontal=1;labelBorderColor=none;" parent="1" source="Bd_Znv9zzZqGdn2Q8TQX-3" target="Bd_Znv9zzZqGdn2Q8TQX-2" edge="1">
          <mxGeometry width="100" height="100" relative="1" as="geometry">
            <mxPoint x="350" y="470" as="sourcePoint" />
            <mxPoint x="450" y="370" as="targetPoint" />
          </mxGeometry>
        </mxCell>
        <mxCell id="Bd_Znv9zzZqGdn2Q8TQX-49" value="" style="endArrow=none;html=1;rounded=0;exitX=1;exitY=0.5;exitDx=0;exitDy=0;entryX=0;entryY=0.5;entryDx=0;entryDy=0;horizontal=1;labelBorderColor=none;" parent="1" source="e_yjh1AmBEDmSFLJNo_H-13" target="Bd_Znv9zzZqGdn2Q8TQX-3" edge="1">
          <mxGeometry relative="1" as="geometry">
            <mxPoint x="320" y="420" as="sourcePoint" />
            <mxPoint x="480" y="420" as="targetPoint" />
          </mxGeometry>
        </mxCell>
        <mxCell id="e_yjh1AmBEDmSFLJNo_H-6" value="" style="shape=stencil(lVjLbhsxDPwaXwlJ1POcpv8RIG5jtI0DJ+nj78utoY1JuaP1zdmMBJEzHJHa8d3r08PLfhfc69vp+G3/6/D49rTjT7sQDs9P+9PhTX7t+H7Hd1+Op/3X0/H9+fH898vDglx+/Tj+XHb4fV4XmZpfVgX35/zFkXP/Pnw+478fni/xjlq+Ac+V3C37c6JYDT42gI/EweBrBnhPhRXeUwD7h0ZJ7x/Ig/1DIdbxMrkA8IlcM/haAT70f3d8Il8A3lHWfGWKAO+FL72/BMQAn6gWha+UQbyeKSeFb12A1/GeYtR8CWFgQaNg+A2UgOAkPB2vjxRAAIma03j5kkDBUDX4Sh4VAGWth4VBJFBK+vyyQwAC8lR1/kUQqAA8ea1nyTCD/Dsqmi8OVEDBOGKtH86Q39U+VnzrCt+GF8dD+R/OHzMlwK+3fpWwwYUe3YpnimB/tv6WclfgNr0lXGCSbZ3/HKiBghf16vNkrP9m74tcqSEDEoHqBBVPDQl6cJSSIAOjZZUKPXr0xOrJgRwtotYk1EgOJGmpYh10LeSQrUcqmoaKy0B4blrXTZQYwYJG3hh1pIiMa7hZW+5a2Xh1t0IRSJWz9d5WodeJNRizaxIVCHrxhmIXJMCDmEPUdu3dpIGSM4WbVohBGHFMDpUKBXdL2NnZJmeS2CxNilETpi6X3jVtFEdxA3VYfiUO1GGBl2Kpm5RQdbYVkSJFrUXl7hIXNoC8uKbudOuCALuvWrtXr1bW+v113Y19F8K6oMB+VpKYtTQk0Uh8C02a6Yl/t2SdKTfItEjNaWnk3Ju46wuqtTLRL6OgK1UtDakQRmmVrlMHPbmlZUHWxE3agAuT2NhoXFkxaWXGQ4kfJiC/MU9xdZL/UVfMtINLSFzCjlO4hEb5MS6hUeBhUkKuO926AJeQuIRx/IAbFLGBoCtimfrAkcQlzJA3GRrEypw2S+lxENOjWU7GnhLtu4L0aQUcaXEJHYN0ghldWs3Ke9LoZmsbYgvgQHmdE7ZNzmIRxmXwZD7e0hEOVilaVeCXgrQ+bHzgkcPE2i1uIz4R37R/sNfnZPBpdrKyePnx8ax1fhG7/J99ApNP5+czvv8L);fillColor=none;" vertex="1" parent="1">
          <mxGeometry x="749.9990476190475" y="250.00238095238097" width="16.13095238095238" height="13.809523809523808" as="geometry" />
        </mxCell>
        <mxCell id="e_yjh1AmBEDmSFLJNo_H-7" value="" style="shape=stencil(lVjLbhsxDPwaXwlJ1POcpv8RIG5jtI0DJ+nj78utoY1JuaP1zdmMBJEzHJHa8d3r08PLfhfc69vp+G3/6/D49rTjT7sQDs9P+9PhTX7t+H7Hd1+Op/3X0/H9+fH898vDglx+/Tj+XHb4fV4XmZpfVgX35/zFkXP/Pnw+478fni/xjlq+Ac+V3C37c6JYDT42gI/EweBrBnhPhRXeUwD7h0ZJ7x/Ig/1DIdbxMrkA8IlcM/haAT70f3d8Il8A3lHWfGWKAO+FL72/BMQAn6gWha+UQbyeKSeFb12A1/GeYtR8CWFgQaNg+A2UgOAkPB2vjxRAAIma03j5kkDBUDX4Sh4VAGWth4VBJFBK+vyyQwAC8lR1/kUQqAA8ea1nyTCD/Dsqmi8OVEDBOGKtH86Q39U+VnzrCt+GF8dD+R/OHzMlwK+3fpWwwYUe3YpnimB/tv6WclfgNr0lXGCSbZ3/HKiBghf16vNkrP9m74tcqSEDEoHqBBVPDQl6cJSSIAOjZZUKPXr0xOrJgRwtotYk1EgOJGmpYh10LeSQrUcqmoaKy0B4blrXTZQYwYJG3hh1pIiMa7hZW+5a2Xh1t0IRSJWz9d5WodeJNRizaxIVCHrxhmIXJMCDmEPUdu3dpIGSM4WbVohBGHFMDpUKBXdL2NnZJmeS2CxNilETpi6X3jVtFEdxA3VYfiUO1GGBl2Kpm5RQdbYVkSJFrUXl7hIXNoC8uKbudOuCALuvWrtXr1bW+v113Y19F8K6oMB+VpKYtTQk0Uh8C02a6Yl/t2SdKTfItEjNaWnk3Ju46wuqtTLRL6OgK1UtDakQRmmVrlMHPbmlZUHWxE3agAuT2NhoXFkxaWXGQ4kfJiC/MU9xdZL/UVfMtINLSFzCjlO4hEb5MS6hUeBhUkKuO926AJeQuIRx/IAbFLGBoCtimfrAkcQlzJA3GRrEypw2S+lxENOjWU7GnhLtu4L0aQUcaXEJHYN0ghldWs3Ke9LoZmsbYgvgQHmdE7ZNzmIRxmXwZD7e0hEOVilaVeCXgrQ+bHzgkcPE2i1uIz4R37R/sNfnZPBpdrKyePnx8ax1fhG7/J99ApNP5+czvv8L);fillColor=none;" vertex="1" parent="1">
          <mxGeometry x="353.8690476190475" y="373.09238095238095" width="16.13095238095238" height="13.809523809523808" as="geometry" />
        </mxCell>
        <mxCell id="e_yjh1AmBEDmSFLJNo_H-8" style="edgeStyle=orthogonalEdgeStyle;rounded=0;orthogonalLoop=1;jettySize=auto;html=1;exitX=0;exitY=0.5;exitDx=0;exitDy=0;entryX=1;entryY=0.5;entryDx=0;entryDy=0;" edge="1" parent="1" source="Bd_Znv9zzZqGdn2Q8TQX-26" target="e_yjh1AmBEDmSFLJNo_H-7">
          <mxGeometry relative="1" as="geometry">
            <mxPoint x="370" y="380" as="sourcePoint" />
            <mxPoint x="330" y="380" as="targetPoint" />
          </mxGeometry>
        </mxCell>
        <mxCell id="e_yjh1AmBEDmSFLJNo_H-9" value="" style="shape=stencil(lZXbboMwEES/hteRvbu+Pafpf0QKbVBbiEjSy9/XiF4ChpV4M/Ye5JkdayveXU6Hc12RuVz77qX+aI7XU8UPFVHTnuq+ueZVxfuKd09dXz/33a09jt/nw1A5rN669+EPnyNnYMwAkfmabTyO5a9Nq5UzKG4o93B+Q3lClPVyD3KTcmshym0swU3/bwXBKUD8Pf4DIgyvA+TmCsiC7TrAdq6BBC4pQJhroIAY1gFXtszCKqJ94RILRBHtC5fyJYMSolC4JAZJaVwsXBIBKUGKhUuSd5QoJZ5ryL5FUqJhCl+dwCqql4gA1vJaEt7AK7qXCEZSmrdEBJAS2QUiGIiS2SUi+62EdokIMNpTLYlowNuUR4bfpjx6REV5GatkYJUGJgsfpgBDlOCWSU8eQQlu+fjuZP0QefE/L8ZRc382ny15a5xLvP8G);fillColor=none;" vertex="1" parent="1">
          <mxGeometry x="757.5885714285713" y="155.48047619047614" width="0.9523809523809523" height="14.523809523809524" as="geometry" />
        </mxCell>
        <mxCell id="e_yjh1AmBEDmSFLJNo_H-11" value="" style="shape=stencil(lZXbboMwEES/hteRvbu+Pafpf0QKbVBbiEjSy9/XiF4ChpV4M/Ye5JkdayveXU6Hc12RuVz77qX+aI7XU8UPFVHTnuq+ueZVxfuKd09dXz/33a09jt/nw1A5rN669+EPnyNnYMwAkfmabTyO5a9Nq5UzKG4o93B+Q3lClPVyD3KTcmshym0swU3/bwXBKUD8Pf4DIgyvA+TmCsiC7TrAdq6BBC4pQJhroIAY1gFXtszCKqJ94RILRBHtC5fyJYMSolC4JAZJaVwsXBIBKUGKhUuSd5QoJZ5ryL5FUqJhCl+dwCqql4gA1vJaEt7AK7qXCEZSmrdEBJAS2QUiGIiS2SUi+62EdokIMNpTLYlowNuUR4bfpjx6REV5GatkYJUGJgsfpgBDlOCWSU8eQQlu+fjuZP0QefE/L8ZRc382ny15a5xLvP8G);fillColor=none;" vertex="1" parent="1">
          <mxGeometry x="757.5885714285713" y="155.48047619047614" width="0.9523809523809523" height="14.523809523809524" as="geometry" />
        </mxCell>
        <mxCell id="e_yjh1AmBEDmSFLJNo_H-12" value="" style="shape=stencil(lZXbboMwEES/hteRvbu+Pafpf0QKbVBbiEjSy9/XiF4ChpV4M/Ye5JkdayveXU6Hc12RuVz77qX+aI7XU8UPFVHTnuq+ueZVxfuKd09dXz/33a09jt/nw1A5rN669+EPnyNnYMwAkfmabTyO5a9Nq5UzKG4o93B+Q3lClPVyD3KTcmshym0swU3/bwXBKUD8Pf4DIgyvA+TmCsiC7TrAdq6BBC4pQJhroIAY1gFXtszCKqJ94RILRBHtC5fyJYMSolC4JAZJaVwsXBIBKUGKhUuSd5QoJZ5ryL5FUqJhCl+dwCqql4gA1vJaEt7AK7qXCEZSmrdEBJAS2QUiGIiS2SUi+62EdokIMNpTLYlowNuUR4bfpjx6REV5GatkYJUGJgsfpgBDlOCWSU8eQQlu+fjuZP0QefE/L8ZRc382ny15a5xLvP8G);fillColor=none;" vertex="1" parent="1">
          <mxGeometry x="767.5885714285713" y="165.48047619047614" width="0.9523809523809523" height="14.523809523809524" as="geometry" />
        </mxCell>
        <mxCell id="e_yjh1AmBEDmSFLJNo_H-13" value="" style="shape=stencil(lZXbboMwEES/hteRvbu+Pafpf0QKbVBbiEjSy9/XiF4ChpV4M/Ye5JkdayveXU6Hc12RuVz77qX+aI7XU8UPFVHTnuq+ueZVxfuKd09dXz/33a09jt/nw1A5rN669+EPnyNnYMwAkfmabTyO5a9Nq5UzKG4o93B+Q3lClPVyD3KTcmshym0swU3/bwXBKUD8Pf4DIgyvA+TmCsiC7TrAdq6BBC4pQJhroIAY1gFXtszCKqJ94RILRBHtC5fyJYMSolC4JAZJaVwsXBIBKUGKhUuSd5QoJZ5ryL5FUqJhCl+dwCqql4gA1vJaEt7AK7qXCEZSmrdEBJAS2QUiGIiS2SUi+62EdokIMNpTLYlowNuUR4bfpjx6REV5GatkYJUGJgsfpgBDlOCWSU8eQQlu+fjuZP0QefE/L8ZRc382ny15a5xLvP8G);fillColor=none;" vertex="1" parent="1">
          <mxGeometry x="179.99857142857127" y="212.74047619047613" width="0.9523809523809523" height="14.523809523809524" as="geometry" />
        </mxCell>
        <mxCell id="e_yjh1AmBEDmSFLJNo_H-14" value="" style="endArrow=none;html=1;rounded=0;exitX=1;exitY=0.5;exitDx=0;exitDy=0;entryX=0;entryY=0.5;entryDx=0;entryDy=0;horizontal=1;labelBorderColor=none;" edge="1" parent="1" source="Bd_Znv9zzZqGdn2Q8TQX-1" target="e_yjh1AmBEDmSFLJNo_H-13">
          <mxGeometry relative="1" as="geometry">
            <mxPoint x="170" y="220" as="sourcePoint" />
            <mxPoint x="210" y="220" as="targetPoint" />
          </mxGeometry>
        </mxCell>
        <mxCell id="e_yjh1AmBEDmSFLJNo_H-15" value="1" style="resizable=0;html=1;align=right;verticalAlign=bottom;horizontal=1;labelBorderColor=none;" connectable="0" vertex="1" parent="e_yjh1AmBEDmSFLJNo_H-14">
          <mxGeometry x="1" relative="1" as="geometry" />
        </mxCell>
      </root>
    </mxGraphModel>
  </diagram>
</mxfile>
